<svg version="1.1" id="Layer_1" xmlns="http://www.w3.org/2000/svg" xmlns:xlink="http://www.w3.org/1999/xlink" x="0px" y="0px"
	 width="100%" viewBox="0 0 1080 1903" enable-background="new 0 0 1080 1903" xml:space="preserve">
<path fill="#FFFFFF" opacity="1.000000" stroke="none" 
	d="
M1.000000,1013.000000 
	C1.000000,675.689392 1.000000,338.378784 1.000000,1.034081 
	C360.953033,1.034081 720.906067,1.034081 1080.929565,1.034081 
	C1080.929565,635.243652 1080.929565,1269.487305 1080.929565,1903.865479 
	C721.114014,1903.865479 361.227905,1903.865479 1.000000,1903.865479 
	C1.000000,1609.300659 1.000000,1314.601196 1.380055,1019.330078 
	C3.455829,1020.548950 5.151548,1022.339478 7.048396,1024.342407 
	C20.218607,1026.095825 33.376392,1022.543640 46.693821,1020.284851 
	C51.677685,1019.439514 56.800915,1019.415833 61.957909,1019.309387 
	C62.441162,1020.070496 62.827110,1020.539795 63.244095,1021.285522 
	C64.139503,1021.707458 65.003868,1021.853027 66.263527,1022.038330 
	C67.437599,1021.948608 68.216385,1021.819214 69.341988,1021.728943 
	C70.719917,1020.636780 71.866714,1019.588501 72.753250,1018.353455 
	C73.893265,1016.765259 74.431076,1014.237915 75.917213,1013.497192 
	C80.979599,1010.973694 86.290878,1008.911499 91.609489,1006.950867 
	C96.649841,1005.092834 101.795761,1003.505981 106.947594,1001.976196 
	C108.248154,1001.590088 109.748550,1001.877014 111.157120,1001.854614 
	C110.599648,1003.573303 110.243042,1005.396545 109.420349,1006.977173 
	C108.776833,1008.213501 107.555290,1009.148987 106.435226,1010.435852 
	C106.210655,1010.817871 106.141411,1010.982178 105.756012,1011.188721 
	C105.681458,1012.392334 105.923073,1013.553711 106.303360,1014.959045 
	C106.554886,1015.352112 106.667725,1015.501282 106.641830,1015.989136 
	C110.026512,1018.089966 113.549927,1019.852112 117.143272,1021.679688 
	C117.213196,1021.745239 117.376633,1021.845276 117.341423,1022.195801 
	C117.572807,1023.143005 117.757423,1023.795288 118.118584,1024.327759 
	C122.092003,1030.186523 126.065025,1036.046265 130.145584,1041.829956 
	C130.434830,1042.239868 131.569809,1042.053101 132.568665,1042.311768 
	C133.009094,1042.571167 133.192352,1042.662476 133.434265,1043.062622 
	C137.063110,1046.276245 137.830872,1042.851318 139.273300,1040.843140 
	C141.435577,1037.832520 143.651840,1034.860718 145.845154,1031.872314 
	C146.248566,1032.132446 146.651978,1032.392578 147.055374,1032.652710 
	C146.935928,1030.727417 146.816483,1028.802002 146.745392,1026.834595 
	C146.793732,1026.792480 146.857895,1026.681519 147.218567,1026.724243 
	C148.959030,1025.162231 150.338806,1023.557495 151.991089,1021.784424 
	C152.433395,1021.486633 152.603195,1021.357117 153.111450,1021.357910 
	C154.502991,1020.599426 155.556076,1019.710754 156.918854,1018.692139 
	C157.418701,1018.444092 157.608856,1018.325928 158.154633,1018.359131 
	C161.978577,1018.958496 163.716690,1016.996277 164.692871,1014.027771 
	C164.996094,1013.105652 164.954010,1011.466858 165.449585,1011.302856 
	C171.470978,1009.309692 168.831360,1005.300781 167.961685,1001.038940 
	C166.234573,1001.567993 163.887894,1001.595154 163.428909,1002.539673 
	C160.430710,1008.709412 157.117447,1006.036560 153.635574,1003.262634 
	C148.202255,998.933838 143.757645,993.865356 140.423813,986.487061 
	C144.013687,985.356140 146.875153,984.484802 149.713211,983.542969 
	C150.612396,983.244568 151.513000,982.855896 152.303635,982.340820 
	C156.790314,979.417419 161.385544,976.631775 165.658676,973.419922 
	C168.475662,971.302551 171.247345,968.846985 173.226868,965.981628 
	C174.798462,963.706604 176.020035,960.522034 175.843674,957.843567 
	C175.452393,951.901550 171.325775,950.016907 164.678146,951.243958 
	C152.573898,953.478088 140.405685,955.365906 128.262466,957.388062 
	C126.981018,957.601440 125.360764,958.332642 124.453506,957.826721 
	C118.476128,954.494019 112.651146,950.888062 106.472313,947.189026 
	C108.060905,945.901917 109.139908,945.027649 110.650116,943.804016 
	C107.245834,944.287354 104.615250,944.660828 101.910271,944.704041 
	C100.289589,942.653748 98.875488,940.788879 97.175392,939.237427 
	C86.840462,929.806396 78.935387,918.707092 73.197884,905.922119 
	C72.293922,903.907776 69.260010,901.848022 67.082275,901.699890 
	C65.069733,901.562866 62.691116,903.739014 60.845303,905.328125 
	C59.671139,906.338928 59.316326,908.242310 58.340084,909.556763 
	C57.045753,911.299561 55.503433,912.858093 53.614441,915.012817 
	C53.589439,915.387329 54.010921,917.281372 53.293938,918.512207 
	C47.646172,928.207703 39.711418,935.894531 31.444387,943.223267 
	C28.760853,941.364441 26.151293,939.955566 24.048874,938.001221 
	C21.323479,935.467651 19.933649,933.216614 16.160065,937.764343 
	C11.726154,943.107910 10.827794,946.086853 16.367046,949.521057 
	C19.717957,951.598511 18.153545,952.667908 15.912638,953.889404 
	C14.031494,954.914917 11.979346,955.700500 10.272999,956.958618 
	C5.803531,960.254272 6.316670,964.774902 11.087891,967.738525 
	C18.099707,972.093933 25.032860,976.583557 31.877081,981.197632 
	C34.843761,983.197632 37.505733,985.649658 40.654240,988.175720 
	C38.234505,990.109009 37.429848,990.973145 36.445549,991.504578 
	C24.600435,997.899536 12.589612,1004.023926 2.428043,1013.080994 
	C2.176175,1013.305420 1.485829,1013.038025 1.000000,1013.000000 
M289.024719,960.203552 
	C287.815857,957.153564 286.761871,954.030701 285.367279,951.068115 
	C282.024902,943.967773 278.522522,936.942810 275.014313,929.980591 
	C275.014313,929.980591 275.118408,929.927673 275.034546,929.165771 
	C270.033569,912.961548 270.033569,912.961670 253.538300,912.964050 
	C252.043854,912.964294 250.492432,912.713806 249.073120,913.039673 
	C247.949768,913.297607 246.451584,914.021912 246.037811,914.948792 
	C241.586151,924.921936 237.316864,934.976501 233.001648,945.001038 
	C233.001648,945.001038 233.006546,944.993774 232.405136,945.281250 
	C229.971771,950.856506 227.538406,956.431702 224.950974,962.432129 
	C224.950974,962.432129 224.947632,962.884399 224.363220,963.212891 
	C214.923187,983.898682 205.483170,1004.584473 195.683044,1026.059326 
	C203.169998,1026.059326 209.457397,1026.171387 215.733688,1025.957886 
	C216.891281,1025.918579 218.587234,1024.813354 219.038788,1023.769470 
	C221.266769,1018.618103 223.159790,1013.321838 225.054581,1008.075134 
	C225.054581,1008.075134 225.137497,1008.156799 225.726379,1007.834290 
	C226.165344,1007.136353 226.861099,1006.486389 227.001678,1005.732849 
	C227.924026,1000.789124 231.013168,999.877502 235.642014,999.965332 
	C250.451035,1000.246521 265.270325,1000.178955 280.082184,999.983398 
	C283.777679,999.934631 285.867615,1001.030457 287.214722,1004.551636 
	C289.526672,1010.594727 292.179138,1016.513794 294.878815,1022.397705 
	C295.511475,1023.776550 296.858429,1025.786987 297.953827,1025.837524 
	C304.804199,1026.154297 311.676422,1025.997559 319.528107,1025.997559 
	C314.120544,1014.768372 309.101166,1004.345276 304.061554,993.982300 
	C304.061554,993.982300 304.099030,993.917236 304.013519,993.154419 
	C303.192719,990.990845 302.519714,988.756714 301.525360,986.676086 
	C297.413361,978.072510 293.204102,969.515442 288.997192,960.992920 
	C288.997192,960.992920 289.056641,960.977173 289.024719,960.203552 
M841.053467,977.051941 
	C841.053467,977.051941 841.066528,977.186707 841.994568,977.127808 
	C859.884705,977.127808 877.774780,977.127808 895.660950,977.127808 
	C895.660950,970.973022 895.660950,965.722900 895.660950,959.710083 
	C877.259277,959.710083 859.166626,959.710083 841.079834,958.809204 
	C841.086182,949.313843 841.092529,939.818481 842.013611,930.183289 
	C860.780151,930.158691 879.547058,930.182617 898.312317,930.015503 
	C899.781677,930.002502 901.239258,928.656006 902.850708,927.021484 
	C902.803345,922.707581 902.755981,918.393738 902.396301,913.308899 
	C901.746277,913.196472 901.096375,912.986145 900.446289,912.985657 
	C874.783691,912.968384 849.121155,912.963135 823.458557,912.993042 
	C822.372925,912.994324 821.287659,913.344299 820.388428,913.499634 
	C820.388428,951.123352 820.388428,988.373108 820.388428,1025.630981 
	C848.787109,1025.630981 876.816223,1025.630981 904.743408,1025.630981 
	C904.743408,1019.913940 904.743408,1014.646240 904.743408,1008.813110 
	C883.308655,1008.813110 862.185730,1008.813110 841.057068,1008.949707 
	C841.057068,1008.949707 841.192566,1008.931702 841.165039,1008.003174 
	C841.172852,997.689514 841.180664,987.375854 841.053467,977.051941 
M345.106445,1016.524658 
	C345.418213,1016.668518 345.729950,1016.812378 346.296326,1017.136353 
	C346.296326,1017.136353 346.608093,1017.145386 346.913361,1017.765625 
	C348.513092,1018.943604 350.002289,1020.324463 351.730591,1021.266479 
	C362.412201,1027.088623 374.025757,1027.612549 385.769257,1026.800659 
	C409.652008,1025.149536 426.320587,1009.800171 427.636719,985.987732 
	C428.949524,962.235291 428.282166,938.373291 428.452515,914.559143 
	C428.455627,914.124756 428.078857,913.687683 427.856018,913.200928 
	C421.184937,913.200928 414.573151,913.200928 407.332458,913.200928 
	C407.332458,915.383728 407.338531,917.335327 407.331512,919.286865 
	C407.256348,940.113403 407.583405,960.951599 406.978577,981.762817 
	C406.466553,999.380493 394.138000,1010.119141 377.375763,1008.875000 
	C366.908325,1008.098083 358.519653,1003.951782 353.200378,994.283508 
	C353.200378,994.283508 353.053833,994.009521 353.021027,993.187012 
	C352.217529,986.611023 350.836304,980.045166 350.720978,973.457092 
	C350.400238,955.136475 350.612640,936.806580 350.591339,918.480347 
	C350.589325,916.732239 350.425446,914.984314 350.340149,913.304077 
	C342.976471,913.304077 336.228424,913.304077 329.275787,913.304077 
	C329.185791,914.600769 329.059784,915.570435 329.059784,916.540100 
	C329.060364,937.198669 328.917633,957.859314 329.190765,978.514465 
	C329.264893,984.120728 330.110413,989.833740 331.475159,995.278870 
	C333.566101,1003.621277 337.418762,1011.112488 345.003845,1015.999023 
	C345.003845,1015.999023 344.983307,1015.996826 345.106445,1016.524658 
M148.099945,899.578918 
	C145.174774,894.836060 142.375366,890.008118 139.254883,885.397400 
	C138.190582,883.824768 136.309662,881.783203 134.819550,881.797546 
	C133.216583,881.812927 130.806625,883.667419 130.177383,885.277649 
	C126.076088,895.773438 118.150299,902.391113 108.793617,907.864929 
	C107.249359,908.768311 105.732986,910.979309 105.620346,912.679871 
	C105.526649,914.094666 107.183815,916.259705 108.632378,917.039856 
	C118.425644,922.314514 126.042328,929.390259 130.087677,940.073975 
	C130.662811,941.593018 133.347519,942.894470 135.206467,943.135620 
	C136.387344,943.288879 138.498566,941.574951 139.077408,940.221375 
	C143.506882,929.863281 150.524216,922.164734 160.791306,917.319824 
	C163.769623,915.914429 165.978653,913.479736 164.130142,909.212952 
	C165.454681,908.672119 166.779221,908.131287 168.445786,907.450806 
	C167.595581,906.098572 167.162247,904.506226 166.370712,904.301880 
	C162.246048,903.237610 161.355682,900.042725 160.376389,896.581177 
	C160.002045,895.257874 158.525192,894.246460 157.550781,893.092896 
	C156.309006,894.310852 154.190231,895.399780 153.988541,896.770752 
	C153.362015,901.030029 150.896637,900.872009 148.099945,899.578918 
M1027.083496,913.022644 
	C1020.826660,913.022644 1014.569824,913.022644 1008.017395,913.022644 
	C1008.017395,938.127014 1008.017395,962.668213 1007.276733,987.335266 
	C1004.483704,984.326843 1001.519836,981.458191 998.925354,978.287354 
	C981.972656,957.567810 965.113159,936.772034 948.167603,916.046631 
	C947.180298,914.839111 945.755371,913.252075 944.451050,913.170471 
	C939.190857,912.841431 933.898071,913.034058 928.478271,913.034058 
	C928.478271,950.930237 928.478271,988.285217 928.478271,1025.671753 
	C935.459839,1025.671753 942.026733,1025.671753 949.287415,1025.671753 
	C949.287415,1000.711609 949.287415,976.106750 949.287415,950.406433 
	C951.110535,952.491638 952.114075,953.574280 953.046265,954.715271 
	C971.659790,977.497986 990.252502,1000.297791 1008.907288,1023.046631 
	C1009.893311,1024.249023 1011.343628,1025.794067 1012.658813,1025.875732 
	C1017.897400,1026.201172 1023.168152,1026.009888 1028.543701,1026.009888 
	C1028.696289,1024.479980 1028.846680,1023.674377 1028.847046,1022.868835 
	C1028.859253,987.384521 1028.865601,951.900146 1028.822632,916.415894 
	C1028.821289,915.360474 1028.285278,914.305786 1027.083496,913.022644 
M538.349731,983.870056 
	C556.553894,970.071350 558.331055,941.637756 542.094360,925.651672 
	C533.230835,916.924988 522.145508,913.605530 510.283936,913.215820 
	C493.802155,912.674194 477.290924,913.023987 460.792297,913.017761 
	C460.013794,913.017456 459.235260,913.265869 458.359009,913.415161 
	C458.359009,950.940735 458.359009,988.185425 458.359009,1025.639038 
	C465.353912,1025.639038 472.049347,1025.639038 479.239624,1025.639038 
	C479.239624,1014.648132 479.239624,1004.055420 479.239624,993.023682 
	C488.863373,993.023682 497.994873,992.916870 507.117950,993.146118 
	C508.394897,993.178284 509.974060,994.615295 510.830200,995.817261 
	C517.101440,1004.622314 523.167053,1013.574036 529.448975,1022.371216 
	C530.509094,1023.855835 532.244629,1025.769531 533.762878,1025.857910 
	C540.348877,1026.241699 546.969910,1026.022583 554.478760,1026.022583 
	C553.203918,1023.933350 552.444885,1022.535828 551.543335,1021.237305 
	C546.041809,1013.312866 540.454041,1005.447815 535.000000,997.491089 
	C529.553345,989.545349 529.607300,989.508362 538.349731,983.870056 
M720.574341,997.961853 
	C704.931519,984.298401 705.117798,957.990845 717.250061,944.002197 
	C732.503479,926.415161 755.862122,925.954468 780.122803,942.509033 
	C784.374512,938.139282 788.592712,933.804016 793.206665,929.061951 
	C791.196106,927.290710 788.908630,924.887146 786.253784,923.000488 
	C770.602356,911.877502 753.016541,910.241394 734.721375,913.169556 
	C709.682800,917.177124 691.045349,936.310852 687.412292,961.304321 
	C683.755188,986.462524 696.298767,1010.595520 719.542603,1021.110229 
	C739.798401,1030.273315 760.309448,1028.565430 780.645386,1020.403015 
	C789.161438,1016.984924 793.987793,1012.408569 792.839783,1001.994568 
	C791.629456,991.014282 792.568604,979.797119 792.568604,968.055298 
	C786.754822,968.055298 781.470947,968.192871 776.198853,968.002808 
	C773.127747,967.892090 772.131897,969.008240 772.183105,972.044006 
	C772.334656,981.033936 772.124451,990.030273 772.300293,999.019348 
	C772.361450,1002.146179 771.310181,1004.045959 768.407227,1005.128113 
	C751.412720,1011.463501 735.469177,1010.406189 720.574341,997.961853 
M656.443604,1016.253296 
	C657.281128,1018.246704 657.930237,1020.350891 659.016785,1022.197815 
	C659.863098,1023.636475 661.197937,1025.778931 662.411865,1025.845215 
	C668.996765,1026.204468 675.611511,1026.015625 682.906799,1026.015625 
	C680.953613,1021.530518 679.350220,1017.730713 677.654175,1013.972656 
	C663.832397,983.347351 649.950867,952.748901 636.185486,922.098267 
	C632.122314,913.051208 632.265686,912.986633 622.104431,912.988953 
	C619.438843,912.989563 616.688904,912.592590 614.137146,913.132202 
	C612.403198,913.498779 610.168152,914.823059 609.481628,916.324585 
	C595.373535,947.180908 581.446228,978.120056 567.510132,1009.054932 
	C565.068909,1014.473816 562.750488,1019.948120 560.091125,1026.048828 
	C567.262817,1026.048828 573.576904,1026.197632 579.871643,1025.914673 
	C581.032776,1025.862427 582.573853,1024.278931 583.157043,1023.035278 
	C586.123901,1016.708069 588.991699,1010.322815 591.561401,1003.826233 
	C592.718872,1000.900146 594.268921,999.906250 597.435852,999.944702 
	C612.260986,1000.124634 627.098938,1000.332336 641.912109,999.875854 
	C647.644836,999.699219 650.926575,1001.170166 652.399536,1006.852417 
	C653.183167,1009.875488 654.845947,1012.670654 656.443604,1016.253296 
M14.630509,985.332886 
	C14.335688,982.691345 13.651266,980.026550 10.352313,980.519531 
	C8.969134,980.726257 7.042281,982.464478 6.806531,983.767639 
	C6.556443,985.150146 8.087675,988.182251 8.722820,988.150208 
	C10.681547,988.051514 12.583902,986.834473 14.630509,985.332886 
M37.507393,909.555420 
	C38.536194,908.804993 40.156200,908.236389 40.455986,907.261780 
	C40.911266,905.781311 40.894871,903.799072 40.227608,902.451294 
	C39.755505,901.497681 37.194252,900.442322 36.750488,900.820923 
	C35.349400,902.016602 33.766914,903.829468 33.685509,905.474304 
	C33.622566,906.746155 35.710205,908.124390 37.507393,909.555420 
z"/>
<path fill="#8ABDE2" opacity="1.000000" stroke="none" 
	d="
M61.860600,1019.017517 
	C56.800915,1019.415833 51.677685,1019.439514 46.693821,1020.284851 
	C33.376392,1022.543640 20.218607,1026.095825 7.048396,1024.342407 
	C5.151548,1022.339478 3.455829,1020.548950 1.380055,1018.879150 
	C1.000000,1017.285645 1.000000,1015.571289 1.000000,1013.428467 
	C1.485829,1013.038025 2.176175,1013.305420 2.428043,1013.080994 
	C12.589612,1004.023926 24.600435,997.899536 36.445549,991.504578 
	C37.429848,990.973145 38.234505,990.109009 40.654240,988.175720 
	C37.505733,985.649658 34.843761,983.197632 31.877081,981.197632 
	C25.032860,976.583557 18.099707,972.093933 11.087891,967.738525 
	C6.316670,964.774902 5.803531,960.254272 10.272999,956.958618 
	C11.979346,955.700500 14.031494,954.914917 15.912638,953.889404 
	C18.153545,952.667908 19.717957,951.598511 16.367046,949.521057 
	C10.827794,946.086853 11.726154,943.107910 16.160065,937.764343 
	C19.933649,933.216614 21.323479,935.467651 24.048874,938.001221 
	C26.151293,939.955566 28.760853,941.364441 31.444387,943.223267 
	C39.711418,935.894531 47.646172,928.207703 53.293938,918.512207 
	C54.010921,917.281372 53.589439,915.387329 53.614441,915.012817 
	C55.503433,912.858093 57.045753,911.299561 58.340084,909.556763 
	C59.316326,908.242310 59.671139,906.338928 60.845303,905.328125 
	C62.691116,903.739014 65.069733,901.562866 67.082275,901.699890 
	C69.260010,901.848022 72.293922,903.907776 73.197884,905.922119 
	C78.935387,918.707092 86.840462,929.806396 97.175392,939.237427 
	C98.875488,940.788879 100.289589,942.653748 101.875381,944.744934 
	C101.914902,945.116089 101.848618,945.200623 101.534630,945.137085 
	C100.793182,945.043823 100.365723,945.014038 99.770592,944.931030 
	C99.602921,944.877747 99.258438,944.806152 99.154602,944.482544 
	C98.458260,943.373474 97.984924,942.449097 97.255470,941.823242 
	C85.762749,931.964050 77.406471,919.799072 70.866219,906.261414 
	C69.284927,902.988281 65.095924,902.881653 62.966682,906.210754 
	C60.219810,910.505615 57.855011,915.044250 55.309574,919.468628 
	C53.504150,922.606750 51.672066,925.729614 49.528057,928.946167 
	C39.275871,940.561035 27.588881,949.848999 14.157572,957.030273 
	C8.712070,959.941895 9.079130,963.675049 14.180744,967.158386 
	C22.490574,972.832336 31.042841,978.332825 38.524914,984.993713 
	C48.985569,994.306274 57.108715,1005.601501 61.860600,1019.017517 
M33.462376,1015.366821 
	C39.972595,1013.986328 46.511597,1012.717529 52.950104,1011.058716 
	C53.619781,1010.886169 54.441635,1007.960205 53.914513,1007.062561 
	C51.569386,1003.068970 48.937004,999.203308 46.009926,995.616638 
	C45.113434,994.518066 42.695038,993.644470 41.402397,994.046509 
	C30.675484,997.383057 21.190353,1002.985596 13.190045,1010.902588 
	C10.319190,1013.743469 11.184907,1016.512390 15.061871,1017.341431 
	C16.939264,1017.742859 18.986135,1017.804993 20.889059,1017.539307 
	C24.813423,1016.991211 28.692675,1016.120056 33.462376,1015.366821 
z"/>
<path fill="#746EF9" opacity="1.000000" stroke="none" 
	d="
M1027.998535,913.250732 
	C1028.285278,914.305786 1028.821289,915.360474 1028.822632,916.415894 
	C1028.865601,951.900146 1028.859253,987.384521 1028.847046,1022.868835 
	C1028.846680,1023.674377 1028.696289,1024.479980 1028.543701,1026.009888 
	C1023.168152,1026.009888 1017.897400,1026.201172 1012.658813,1025.875732 
	C1011.343628,1025.794067 1009.893311,1024.249023 1008.907288,1023.046631 
	C990.252502,1000.297791 971.659790,977.497986 953.046265,954.715271 
	C952.114075,953.574280 951.110535,952.491638 949.287415,950.406433 
	C949.287415,976.106750 949.287415,1000.711609 949.287415,1025.671753 
	C942.026733,1025.671753 935.459839,1025.671753 928.478271,1025.671753 
	C928.478271,988.285217 928.478271,950.930237 928.478271,913.034058 
	C933.898071,913.034058 939.190857,912.841431 944.451050,913.170471 
	C945.755371,913.252075 947.180298,914.839111 948.167603,916.046631 
	C965.113159,936.772034 981.972656,957.567810 998.925354,978.287354 
	C1001.519836,981.458191 1004.483704,984.326843 1007.703735,987.550232 
	C1008.381287,987.794739 1008.815125,987.911194 1008.849670,987.838318 
	C1008.979553,987.564453 1009.021545,987.228882 1009.021606,986.916443 
	C1009.027954,964.176331 1009.104553,941.435608 1008.949585,918.696594 
	C1008.924255,914.971741 1010.019592,913.782593 1013.747253,913.892944 
	C1018.487183,914.033081 1023.247192,913.495850 1027.998535,913.250732 
z"/>
<path fill="#746EF9" opacity="1.000000" stroke="none" 
	d="
M538.060852,984.086670 
	C529.607300,989.508362 529.553345,989.545349 535.000000,997.491089 
	C540.454041,1005.447815 546.041809,1013.312866 551.543335,1021.237305 
	C552.444885,1022.535828 553.203918,1023.933350 554.478760,1026.022583 
	C546.969910,1026.022583 540.348877,1026.241699 533.762878,1025.857910 
	C532.244629,1025.769531 530.509094,1023.855835 529.448975,1022.371216 
	C523.167053,1013.574036 517.101440,1004.622314 510.830200,995.817261 
	C509.974060,994.615295 508.394897,993.178284 507.117950,993.146118 
	C497.994873,992.916870 488.863373,993.023682 479.239624,993.023682 
	C479.239624,1004.055420 479.239624,1014.648132 479.239624,1025.639038 
	C472.049347,1025.639038 465.353912,1025.639038 458.359009,1025.639038 
	C458.359009,988.185425 458.359009,950.940735 458.359009,913.415161 
	C459.235260,913.265869 460.013794,913.017456 460.792297,913.017761 
	C477.290924,913.023987 493.802155,912.674194 510.283936,913.215820 
	C522.145508,913.605530 533.230835,916.924988 542.094360,925.651672 
	C558.331055,941.637756 556.553894,970.071350 538.060852,984.086670 
M528.983948,940.344910 
	C526.535828,933.546326 515.391052,928.534363 507.263184,931.013123 
	C506.496155,930.960022 505.729126,930.906860 504.334961,930.326965 
	C496.241516,930.098572 488.148315,929.856995 480.053467,929.704834 
	C479.806763,929.700134 479.542603,930.626587 479.123840,931.586731 
	C479.123840,931.586731 478.936951,932.045410 478.340820,932.357422 
	C478.083557,932.766602 477.598419,933.177979 477.602264,933.584717 
	C477.708984,944.878479 477.913361,956.171509 477.998962,967.465393 
	C478.073639,977.312256 478.017120,977.233887 487.651123,977.058594 
	C495.134766,976.922363 502.659607,977.450745 510.092743,976.819580 
	C513.788208,976.505798 517.318848,974.250610 521.003540,972.958679 
	C521.003540,972.958679 520.894836,972.916992 521.675659,972.974670 
	C526.661621,973.470337 527.740906,968.883545 530.137207,966.218689 
	C534.878174,960.946533 533.959412,945.957092 528.984192,941.025940 
	C528.984192,941.025940 528.927795,941.095581 528.983948,940.344910 
z"/>
<path fill="#756FF8" opacity="1.000000" stroke="none" 
	d="
M720.800659,998.239258 
	C735.469177,1010.406189 751.412720,1011.463501 768.407227,1005.128113 
	C771.310181,1004.045959 772.361450,1002.146179 772.300293,999.019348 
	C772.124451,990.030273 772.334656,981.033936 772.183105,972.044006 
	C772.131897,969.008240 773.127747,967.892090 776.198853,968.002808 
	C781.470947,968.192871 786.754822,968.055298 792.568604,968.055298 
	C792.568604,979.797119 791.629456,991.014282 792.839783,1001.994568 
	C793.987793,1012.408569 789.161438,1016.984924 780.645386,1020.403015 
	C760.309448,1028.565430 739.798401,1030.273315 719.542603,1021.110229 
	C696.298767,1010.595520 683.755188,986.462524 687.412292,961.304321 
	C691.045349,936.310852 709.682800,917.177124 734.721375,913.169556 
	C753.016541,910.241394 770.602356,911.877502 786.253784,923.000488 
	C788.908630,924.887146 791.196106,927.290710 793.206665,929.061951 
	C788.592712,933.804016 784.374512,938.139282 780.122803,942.509033 
	C755.862122,925.954468 732.503479,926.415161 717.250061,944.002197 
	C705.117798,957.990845 704.931519,984.298401 720.800659,998.239258 
z"/>
<path fill="#756FF8" opacity="1.000000" stroke="none" 
	d="
M656.277710,1015.911011 
	C654.845947,1012.670654 653.183167,1009.875488 652.399536,1006.852417 
	C650.926575,1001.170166 647.644836,999.699219 641.912109,999.875854 
	C627.098938,1000.332336 612.260986,1000.124634 597.435852,999.944702 
	C594.268921,999.906250 592.718872,1000.900146 591.561401,1003.826233 
	C588.991699,1010.322815 586.123901,1016.708069 583.157043,1023.035278 
	C582.573853,1024.278931 581.032776,1025.862427 579.871643,1025.914673 
	C573.576904,1026.197632 567.262817,1026.048828 560.091125,1026.048828 
	C562.750488,1019.948120 565.068909,1014.473816 567.510132,1009.054932 
	C581.446228,978.120056 595.373535,947.180908 609.481628,916.324585 
	C610.168152,914.823059 612.403198,913.498779 614.137146,913.132202 
	C616.688904,912.592590 619.438843,912.989563 622.104431,912.988953 
	C632.265686,912.986633 632.122314,913.051208 636.185486,922.098267 
	C649.950867,952.748901 663.832397,983.347351 677.654175,1013.972656 
	C679.350220,1017.730713 680.953613,1021.530518 682.906799,1026.015625 
	C675.611511,1026.015625 668.996765,1026.204468 662.411865,1025.845215 
	C661.197937,1025.778931 659.863098,1023.636475 659.016785,1022.197815 
	C657.930237,1020.350891 657.281128,1018.246704 656.277710,1015.911011 
M622.010010,936.662903 
	C621.136230,937.488892 619.888489,938.151917 619.446350,939.166077 
	C614.805359,949.811462 610.309692,960.520081 605.737000,971.195374 
	C604.017334,975.210144 602.201599,979.183655 600.175171,983.749390 
	C614.768066,983.749390 628.158386,983.749390 642.438538,983.749390 
	C635.620911,967.907715 629.025452,952.582397 622.010010,936.662903 
z"/>
<path fill="#716CFC" opacity="1.000000" stroke="none" 
	d="
M841.098877,930.323120 
	C841.092529,939.818481 841.086182,949.313843 841.201050,959.654175 
	C843.143433,960.992981 844.960571,961.896484 846.786499,961.914551 
	C859.419800,962.039917 872.056030,961.882629 884.689331,962.011108 
	C895.396423,962.119995 893.738342,960.028442 894.075012,971.578613 
	C894.178467,975.127075 892.927734,976.113342 889.498169,976.076660 
	C875.036560,975.922058 860.572021,975.973572 846.109314,976.063965 
	C844.426086,976.074463 842.747375,976.795227 841.066528,977.186707 
	C841.066528,977.186707 841.053467,977.051941 840.777832,977.306396 
	C840.364807,987.501282 840.210754,997.441650 840.137939,1007.382568 
	C840.134155,1007.896301 840.825073,1008.415161 841.192566,1008.931702 
	C841.192566,1008.931702 841.057068,1008.949707 841.309509,1009.224060 
	C843.363708,1009.661499 845.165161,1009.962158 846.967285,1009.966309 
	C862.966187,1010.003296 878.965942,1009.901428 894.964111,1010.018616 
	C905.381897,1010.094910 903.756104,1008.171814 904.059814,1019.405823 
	C904.149719,1022.730652 903.317261,1024.112427 899.652771,1024.091309 
	C875.155029,1023.949524 850.655945,1023.965027 826.157959,1024.079224 
	C822.812317,1024.094727 821.927368,1022.909668 821.935730,1019.719666 
	C822.024719,985.888550 822.026733,952.057068 821.932556,918.226074 
	C821.923462,914.967590 822.936707,913.913574 826.215027,913.931213 
	C851.712402,914.068481 877.210632,914.050110 902.708557,914.079834 
	C902.755981,918.393738 902.803345,922.707581 902.330383,927.496887 
	C883.353577,927.988037 864.896545,927.940796 846.441650,928.119812 
	C844.653748,928.137207 842.879456,929.555237 841.098877,930.323120 
z"/>
<path fill="#746EF9" opacity="1.000000" stroke="none" 
	d="
M224.947632,962.884399 
	C224.947632,962.884399 224.950974,962.432129 225.332916,962.069458 
	C230.481949,957.155212 232.434662,951.375732 233.006546,944.993774 
	C233.006546,944.993774 233.001648,945.001038 233.346191,944.954468 
	C234.330170,944.190430 235.185684,943.573914 235.575653,942.739746 
	C239.546783,934.245361 243.431946,925.710876 247.364136,917.198242 
	C248.772141,914.150024 264.555481,912.290771 266.602844,914.952942 
	C266.973114,915.434509 266.825073,916.291199 267.150421,916.834534 
	C269.774750,921.217896 272.455139,925.567627 275.118408,929.927673 
	C275.118408,929.927673 275.014313,929.980591 275.015015,930.350830 
	C275.157990,932.028442 274.987793,933.473755 275.494232,934.620300 
	C278.357086,941.101501 281.272797,947.565002 284.406342,953.918213 
	C285.643127,956.425720 287.488403,958.633118 289.056641,960.977173 
	C289.056641,960.977173 288.997192,960.992920 288.995453,961.378418 
	C289.437317,963.476868 289.687561,965.269775 290.357300,966.889160 
	C293.629425,974.800842 296.918884,982.708984 300.445160,990.508484 
	C301.078369,991.909119 302.851959,992.794128 304.099030,993.917236 
	C304.099030,993.917236 304.061554,993.982300 304.043823,994.356445 
	C306.489716,1001.156738 308.931274,1007.591553 311.426056,1014.005554 
	C312.699036,1017.278320 314.067627,1020.513855 315.495056,1024.016724 
	C309.895660,1024.016724 305.265259,1024.101929 300.642120,1023.956909 
	C299.485077,1023.920654 297.693390,1023.457214 297.312103,1022.657043 
	C294.550018,1016.859680 291.583618,1011.081177 289.654633,1004.988708 
	C287.918671,999.505676 284.845093,997.827026 279.381622,997.923523 
	C264.564880,998.185242 249.740463,998.007019 234.919083,998.008423 
	C227.031860,998.009155 225.263168,999.849121 225.137497,1008.156799 
	C225.137497,1008.156799 225.054581,1008.075134 224.770599,1008.191040 
	C221.840393,1013.294067 219.194183,1018.281311 216.059814,1024.188477 
	C211.613419,1024.188477 206.080505,1024.188477 199.886276,1024.188477 
	C200.305649,1022.677795 200.536362,1021.104492 201.161835,1019.708069 
	C207.435059,1005.702881 213.901352,991.782532 220.021606,977.711365 
	C222.090515,972.954712 223.329407,967.837097 224.947632,962.884399 
M276.770111,983.940918 
	C276.978302,982.990723 277.638977,981.847473 277.328003,981.118835 
	C270.865875,965.977539 264.293549,950.883301 257.509766,935.242065 
	C256.510315,937.108826 255.641830,938.481995 255.007248,939.955933 
	C250.271057,950.956482 245.524582,961.953247 240.909256,973.004700 
	C239.411697,976.590515 238.295380,980.335571 237.179749,984.800842 
	C237.683411,985.172180 238.184875,985.864197 238.691010,985.867737 
	C250.312744,985.946899 261.935303,985.989441 273.556427,985.889832 
	C274.404602,985.882568 275.243073,984.743652 276.770111,983.940918 
z"/>
<path fill="#746EF9" opacity="1.000000" stroke="none" 
	d="
M353.053833,994.009521 
	C353.053833,994.009521 353.200378,994.283508 353.128662,994.846375 
	C354.747131,998.288208 355.871552,1001.788025 358.228241,1003.935486 
	C367.020264,1011.946899 377.837616,1010.672241 388.367828,1009.183716 
	C391.815186,1008.696411 395.392670,1007.071716 398.277679,1005.059631 
	C406.169403,999.555847 408.747192,991.080872 408.898499,982.050842 
	C409.210876,963.410400 409.004944,944.761230 409.009216,926.115662 
	C409.012054,913.779358 409.010132,913.927734 421.317230,913.897888 
	C425.076324,913.888794 426.135193,915.035950 426.100037,918.739624 
	C425.929535,936.717651 426.108856,954.698792 425.976501,972.677490 
	C425.931427,978.796631 426.077362,985.066345 424.838135,990.996033 
	C422.350952,1002.897400 416.649750,1012.740234 405.385864,1019.013306 
	C398.096436,1023.072998 390.356812,1025.660156 382.403870,1025.692871 
	C374.703766,1025.724609 366.927429,1023.611755 359.313416,1021.875671 
	C354.945892,1020.879761 350.834686,1018.759460 346.608093,1017.145386 
	C346.608093,1017.145386 346.296326,1017.136353 346.053955,1016.825500 
	C345.600739,1016.237732 345.324646,1016.065125 344.983307,1015.996826 
	C344.983307,1015.996826 345.003845,1015.999023 345.004517,1015.637085 
	C344.639526,1014.382812 344.507355,1013.246948 343.871124,1012.636841 
	C338.971313,1007.939331 335.164978,1002.516846 333.876099,995.812134 
	C332.321655,987.726135 330.510254,979.572510 330.182526,971.393127 
	C329.589722,956.598877 330.014679,941.763916 330.014679,926.945923 
	C330.014679,913.847412 330.015656,913.989990 342.997009,913.898438 
	C346.873505,913.871155 348.178406,914.884827 348.112000,918.922546 
	C347.876617,933.237122 347.908691,947.559143 348.065094,961.875916 
	C348.148346,969.495789 348.348816,977.149536 349.196503,984.709473 
	C349.555725,987.913391 351.713501,990.915649 353.053833,994.009521 
z"/>
<path fill="#8ABDE2" opacity="1.000000" stroke="none" 
	d="
M101.949783,945.075195 
	C104.615250,944.660828 107.245834,944.287354 110.650116,943.804016 
	C109.139908,945.027649 108.060905,945.901917 106.472313,947.189026 
	C112.651146,950.888062 118.476128,954.494019 124.453506,957.826721 
	C125.360764,958.332642 126.981018,957.601440 128.262466,957.388062 
	C140.405685,955.365906 152.573898,953.478088 164.678146,951.243958 
	C171.325775,950.016907 175.452393,951.901550 175.843674,957.843567 
	C176.020035,960.522034 174.798462,963.706604 173.226868,965.981628 
	C171.247345,968.846985 168.475662,971.302551 165.658676,973.419922 
	C161.385544,976.631775 156.790314,979.417419 152.303635,982.340820 
	C151.513000,982.855896 150.612396,983.244568 149.713211,983.542969 
	C146.875153,984.484802 144.013687,985.356140 140.423813,986.487061 
	C143.757645,993.865356 148.202255,998.933838 153.635574,1003.262634 
	C157.117447,1006.036560 160.430710,1008.709412 163.428909,1002.539673 
	C163.887894,1001.595154 166.234573,1001.567993 167.961685,1001.038940 
	C168.831360,1005.300781 171.470978,1009.309692 165.449585,1011.302856 
	C164.954010,1011.466858 164.996094,1013.105652 164.692871,1014.027771 
	C163.716690,1016.996277 161.978577,1018.958496 158.287354,1018.084229 
	C158.463165,1017.365234 158.923447,1017.128357 159.249557,1016.769470 
	C160.488388,1015.406189 162.827713,1013.793152 162.620331,1012.666382 
	C162.328949,1011.083130 160.355896,1009.455261 158.715729,1008.534912 
	C151.059753,1004.238708 144.331818,999.018494 140.396484,990.942810 
	C138.813339,987.694031 136.573151,986.802490 133.577576,988.520691 
	C131.474915,989.726746 129.079926,991.087219 127.848534,993.032593 
	C122.665833,1001.220459 115.574974,1006.838135 106.590553,1010.218140 
	C107.555290,1009.148987 108.776833,1008.213501 109.420349,1006.977173 
	C110.243042,1005.396545 110.599648,1003.573303 111.157120,1001.854614 
	C109.748550,1001.877014 108.248154,1001.590088 106.947594,1001.976196 
	C101.795761,1003.505981 96.649841,1005.092834 91.609489,1006.950867 
	C86.290878,1008.911499 80.979599,1010.973694 75.917213,1013.497192 
	C74.431076,1014.237915 73.893265,1016.765259 72.753250,1018.353455 
	C71.866714,1019.588501 70.719917,1020.636780 69.398224,1021.407593 
	C73.146751,1016.329956 73.223480,1009.214233 78.639549,1005.282410 
	C79.071655,1004.968689 78.840134,1003.740845 78.983658,1002.729614 
	C79.050308,1002.521362 79.183609,1002.104919 79.388466,1001.979858 
	C79.852318,1001.652588 80.045052,1001.399780 80.434189,1000.895752 
	C82.612740,998.444885 84.528633,996.194641 86.678116,994.190063 
	C89.118904,995.699463 91.268051,997.091797 93.575577,998.133301 
	C94.127747,998.382507 95.364685,997.617432 95.965843,997.004333 
	C96.202118,996.763306 95.775246,995.309937 95.282097,995.005737 
	C91.645119,992.762451 94.562576,991.981995 95.889511,990.522583 
	C99.368629,995.919861 100.902229,996.403870 106.191444,993.615417 
	C108.371758,992.466003 110.192329,990.552429 112.440300,989.627625 
	C121.051460,986.085327 129.896408,983.086121 138.384827,979.283142 
	C141.707962,977.794250 146.251099,976.674194 146.229874,971.510071 
	C148.050095,971.711548 150.057892,972.590271 151.211044,971.943970 
	C155.436234,969.575989 159.512726,966.873901 163.324249,963.887878 
	C164.214020,963.190857 164.311386,960.741638 163.899918,959.358398 
	C163.570007,958.249268 161.908554,956.762512 160.853638,956.774902 
	C155.909821,956.832947 150.946808,957.155090 146.039169,957.770203 
	C142.341751,958.233582 138.733688,959.368958 135.057098,960.049988 
	C130.642212,960.867615 125.412842,959.872681 123.361320,965.629333 
	C123.345261,965.674500 123.047485,965.619263 122.858879,965.266968 
	C122.934975,964.010132 123.033440,963.097290 123.300751,962.043884 
	C123.324364,961.563416 123.179138,961.223450 122.988174,960.707214 
	C122.942444,960.530945 122.857140,960.176758 122.789139,959.850830 
	C121.824455,958.991516 120.927757,958.458191 119.749962,957.740601 
	C117.323380,956.381409 115.177902,955.206482 112.932327,953.780884 
	C112.520790,953.371460 112.209328,953.212646 111.635719,952.921387 
	C110.667099,952.463928 109.960625,952.138977 109.135506,951.520630 
	C108.339554,950.809875 107.662247,950.392639 106.779129,949.741821 
	C105.343590,948.720703 104.113861,947.933044 102.821091,946.872437 
	C102.454910,946.133179 102.151772,945.666931 101.848625,945.200623 
	C101.848618,945.200623 101.914902,945.116089 101.949783,945.075195 
M115.193382,1003.064148 
	C116.633850,1001.747559 118.074310,1000.431030 119.514778,999.114441 
	C119.136223,998.726990 118.757660,998.339539 118.379097,997.952087 
	C115.564705,998.125488 113.012794,998.559692 115.193382,1003.064148 
M85.173302,1000.462463 
	C85.374489,1000.473206 85.575684,1000.484009 85.776871,1000.494812 
	C85.681953,1000.388184 85.587036,1000.281555 85.173302,1000.462463 
z"/>
<path fill="#7E78DB" opacity="1.000000" stroke="none" 
	d="
M346.760712,1017.455566 
	C350.834686,1018.759460 354.945892,1020.879761 359.313416,1021.875671 
	C366.927429,1023.611755 374.703766,1025.724609 382.403870,1025.692871 
	C390.356812,1025.660156 398.096436,1023.072998 405.385864,1019.013306 
	C416.649750,1012.740234 422.350952,1002.897400 424.838135,990.996033 
	C426.077362,985.066345 425.931427,978.796631 425.976501,972.677490 
	C426.108856,954.698792 425.929535,936.717651 426.100037,918.739624 
	C426.135193,915.035950 425.076324,913.888794 421.317230,913.897888 
	C409.010132,913.927734 409.012054,913.779358 409.009216,926.115662 
	C409.004944,944.761230 409.210876,963.410400 408.898499,982.050842 
	C408.747192,991.080872 406.169403,999.555847 398.277679,1005.059631 
	C395.392670,1007.071716 391.815186,1008.696411 388.367828,1009.183716 
	C377.837616,1010.672241 367.020264,1011.946899 358.228241,1003.935486 
	C355.871552,1001.788025 354.747131,998.288208 353.108429,995.000427 
	C358.519653,1003.951782 366.908325,1008.098083 377.375763,1008.875000 
	C394.138000,1010.119141 406.466553,999.380493 406.978577,981.762817 
	C407.583405,960.951599 407.256348,940.113403 407.331512,919.286865 
	C407.338531,917.335327 407.332458,915.383728 407.332458,913.200928 
	C414.573151,913.200928 421.184937,913.200928 427.856018,913.200928 
	C428.078857,913.687683 428.455627,914.124756 428.452515,914.559143 
	C428.282166,938.373291 428.949524,962.235291 427.636719,985.987732 
	C426.320587,1009.800171 409.652008,1025.149536 385.769257,1026.800659 
	C374.025757,1027.612549 362.412201,1027.088623 351.730591,1021.266479 
	C350.002289,1020.324463 348.513092,1018.943604 346.760712,1017.455566 
z"/>
<path fill="#7E78DB" opacity="1.000000" stroke="none" 
	d="
M163.244888,909.825989 
	C165.978653,913.479736 163.769623,915.914429 160.791306,917.319824 
	C150.524216,922.164734 143.506882,929.863281 139.077408,940.221375 
	C138.498566,941.574951 136.387344,943.288879 135.206467,943.135620 
	C133.347519,942.894470 130.662811,941.593018 130.087677,940.073975 
	C126.042328,929.390259 118.425644,922.314514 108.632378,917.039856 
	C107.183815,916.259705 105.526649,914.094666 105.620346,912.679871 
	C105.732986,910.979309 107.249359,908.768311 108.793617,907.864929 
	C118.150299,902.391113 126.076088,895.773438 130.177383,885.277649 
	C130.806625,883.667419 133.216583,881.812927 134.819550,881.797546 
	C136.309662,881.783203 138.190582,883.824768 139.254883,885.397400 
	C142.375366,890.008118 145.174774,894.836060 147.806580,899.870911 
	C147.283386,900.204895 147.056030,900.257690 146.502380,900.185730 
	C139.599014,897.802185 139.476898,890.309814 135.363861,886.025818 
	C134.557175,886.474060 133.943176,886.599243 133.751572,886.953125 
	C128.461411,896.725220 122.464966,905.744812 111.798538,910.627441 
	C108.547768,912.115540 110.252396,913.775085 112.400436,915.262085 
	C115.766876,917.592346 119.312775,919.844971 122.111542,922.772217 
	C126.562119,927.426941 130.460022,932.610107 134.880127,937.915955 
	C135.349609,937.516602 136.552063,936.986450 136.915878,936.108643 
	C140.902176,926.491272 148.581818,920.833923 157.374451,916.068665 
	C159.344528,915.000916 160.327866,912.112488 161.946686,910.045410 
	C162.500214,909.960938 162.872559,909.893494 163.244888,909.825989 
z"/>
<path fill="#7E78DB" opacity="1.000000" stroke="none" 
	d="
M902.552429,913.694336 
	C877.210632,914.050110 851.712402,914.068481 826.215027,913.931213 
	C822.936707,913.913574 821.923462,914.967590 821.932556,918.226074 
	C822.026733,952.057068 822.024719,985.888550 821.935730,1019.719666 
	C821.927368,1022.909668 822.812317,1024.094727 826.157959,1024.079224 
	C850.655945,1023.965027 875.155029,1023.949524 899.652771,1024.091309 
	C903.317261,1024.112427 904.149719,1022.730652 904.059814,1019.405823 
	C903.756104,1008.171814 905.381897,1010.094910 894.964111,1010.018616 
	C878.965942,1009.901428 862.966187,1010.003296 846.967285,1009.966309 
	C845.165161,1009.962158 843.363708,1009.661499 841.312378,1009.155762 
	C862.185730,1008.813110 883.308655,1008.813110 904.743408,1008.813110 
	C904.743408,1014.646240 904.743408,1019.913940 904.743408,1025.630981 
	C876.816223,1025.630981 848.787109,1025.630981 820.388428,1025.630981 
	C820.388428,988.373108 820.388428,951.123352 820.388428,913.499634 
	C821.287659,913.344299 822.372925,912.994324 823.458557,912.993042 
	C849.121155,912.963135 874.783691,912.968384 900.446289,912.985657 
	C901.096375,912.986145 901.746277,913.196472 902.552429,913.694336 
z"/>
<path fill="#7E78DB" opacity="1.000000" stroke="none" 
	d="
M78.917000,1002.937805 
	C78.840134,1003.740845 79.071655,1004.968689 78.639549,1005.282410 
	C73.223480,1009.214233 73.146751,1016.329956 69.051414,1021.368408 
	C68.216385,1021.819214 67.437599,1021.948608 66.018417,1021.886780 
	C64.656357,1021.466736 63.934685,1021.237915 63.213036,1021.009094 
	C62.827110,1020.539795 62.441162,1020.070496 61.957909,1019.309387 
	C57.108715,1005.601501 48.985569,994.306274 38.524914,984.993713 
	C31.042841,978.332825 22.490574,972.832336 14.180744,967.158386 
	C9.079130,963.675049 8.712070,959.941895 14.157572,957.030273 
	C27.588881,949.848999 39.275871,940.561035 49.572701,928.988281 
	C49.941174,928.943542 50.025837,929.025818 50.015343,929.404785 
	C49.181076,931.501587 48.682583,933.512207 47.459606,934.870605 
	C45.479584,937.069824 42.679630,938.561768 40.831020,940.842712 
	C34.385933,948.794861 25.880295,953.943054 17.267483,959.036438 
	C16.255255,959.635010 15.124404,961.100830 15.161057,962.124817 
	C15.203262,963.303955 16.249147,964.758484 17.282997,965.511292 
	C18.552143,966.435242 20.446659,966.486877 21.745651,967.385620 
	C27.204008,971.161987 32.540997,975.113770 37.969650,979.352539 
	C40.673061,982.493286 43.329258,985.282776 46.104141,988.328857 
	C46.784157,989.071838 47.345486,989.558167 47.951042,990.391296 
	C51.492447,995.268188 55.903442,999.384033 58.203041,1004.457031 
	C60.107304,1008.657837 62.415119,1008.576660 65.449234,1007.688110 
	C70.010979,1006.352173 74.434631,1004.544739 78.917000,1002.937805 
M65.489182,1010.614868 
	C65.489182,1010.614868 65.411774,1010.492249 65.489182,1010.614868 
z"/>
<path fill="#6452FB" opacity="1.000000" stroke="none" 
	d="
M106.435211,1010.435852 
	C115.574974,1006.838135 122.665833,1001.220459 127.848534,993.032593 
	C129.079926,991.087219 131.474915,989.726746 133.577576,988.520691 
	C136.573151,986.802490 138.813339,987.694031 140.396484,990.942810 
	C144.331818,999.018494 151.059753,1004.238708 158.715729,1008.534912 
	C160.355896,1009.455261 162.328949,1011.083130 162.620331,1012.666382 
	C162.827713,1013.793152 160.488388,1015.406189 159.249557,1016.769470 
	C158.923447,1017.128357 158.463165,1017.365234 157.931747,1017.932983 
	C157.608856,1018.325928 157.418701,1018.444092 156.621399,1018.719727 
	C154.933823,1019.660706 153.853394,1020.444153 152.772980,1021.227600 
	C152.603195,1021.357117 152.433395,1021.486633 151.696411,1021.890747 
	C149.705444,1023.670837 148.281677,1025.176147 146.857895,1026.681519 
	C146.857895,1026.681519 146.793732,1026.792480 146.424789,1026.897583 
	C143.604980,1030.792114 141.331924,1034.715210 138.627777,1038.314453 
	C137.285431,1040.101074 135.151443,1041.292969 133.375580,1042.753906 
	C133.192352,1042.662476 133.009094,1042.571167 132.462112,1042.022949 
	C128.624878,1033.922363 125.082237,1026.329956 117.376633,1021.845276 
	C117.376633,1021.845276 117.213196,1021.745239 116.986664,1021.400757 
	C113.433617,1019.254333 110.107086,1017.452393 106.780563,1015.650452 
	C106.667725,1015.501282 106.554886,1015.352112 106.342682,1014.604980 
	C106.186279,1013.053528 106.129227,1012.100037 106.072174,1011.146484 
	C106.141411,1010.982178 106.210655,1010.817871 106.435211,1010.435852 
M157.845108,1013.194214 
	C157.231277,1012.168762 156.844910,1010.849182 155.964569,1010.168457 
	C151.980087,1007.087830 147.475098,1004.580688 143.893463,1001.108032 
	C140.561264,997.877075 138.159088,993.686890 135.085434,989.567810 
	C134.029297,990.863037 133.500580,991.664978 132.825607,992.315063 
	C126.973206,997.950989 121.476158,1004.049988 115.097450,1009.014282 
	C110.380600,1012.685242 109.815704,1012.573120 114.710678,1016.171997 
	C115.507805,1016.758118 116.572205,1017.035156 117.253677,1017.715027 
	C121.404449,1021.856018 125.569641,1025.989746 129.542389,1030.298828 
	C131.462616,1032.381592 132.974091,1034.841187 135.134262,1037.755859 
	C140.422455,1026.801392 148.034119,1019.430603 157.845108,1013.194214 
z"/>
<path fill="#7E78DB" opacity="1.000000" stroke="none" 
	d="
M353.037415,993.598267 
	C351.713501,990.915649 349.555725,987.913391 349.196503,984.709473 
	C348.348816,977.149536 348.148346,969.495789 348.065094,961.875916 
	C347.908691,947.559143 347.876617,933.237122 348.112000,918.922546 
	C348.178406,914.884827 346.873505,913.871155 342.997009,913.898438 
	C330.015656,913.989990 330.014679,913.847412 330.014679,926.945923 
	C330.014679,941.763916 329.589722,956.598877 330.182526,971.393127 
	C330.510254,979.572510 332.321655,987.726135 333.876099,995.812134 
	C335.164978,1002.516846 338.971313,1007.939331 343.871124,1012.636841 
	C344.507355,1013.246948 344.639526,1014.382812 345.001465,1015.647156 
	C337.418762,1011.112488 333.566101,1003.621277 331.475159,995.278870 
	C330.110413,989.833740 329.264893,984.120728 329.190765,978.514465 
	C328.917633,957.859314 329.060364,937.198669 329.059784,916.540100 
	C329.059784,915.570435 329.185791,914.600769 329.275787,913.304077 
	C336.228424,913.304077 342.976471,913.304077 350.340149,913.304077 
	C350.425446,914.984314 350.589325,916.732239 350.591339,918.480347 
	C350.612640,936.806580 350.400238,955.136475 350.720978,973.457092 
	C350.836304,980.045166 352.217529,986.611023 353.037415,993.598267 
z"/>
<path fill="#7E78DB" opacity="1.000000" stroke="none" 
	d="
M225.431946,1007.995544 
	C225.263168,999.849121 227.031860,998.009155 234.919083,998.008423 
	C249.740463,998.007019 264.564880,998.185242 279.381622,997.923523 
	C284.845093,997.827026 287.918671,999.505676 289.654633,1004.988708 
	C291.583618,1011.081177 294.550018,1016.859680 297.312103,1022.657043 
	C297.693390,1023.457214 299.485077,1023.920654 300.642120,1023.956909 
	C305.265259,1024.101929 309.895660,1024.016724 315.495056,1024.016724 
	C314.067627,1020.513855 312.699036,1017.278320 311.426056,1014.005554 
	C308.931274,1007.591553 306.489716,1001.156738 304.053955,994.326416 
	C309.101166,1004.345276 314.120544,1014.768372 319.528107,1025.997559 
	C311.676422,1025.997559 304.804199,1026.154297 297.953827,1025.837524 
	C296.858429,1025.786987 295.511475,1023.776550 294.878815,1022.397705 
	C292.179138,1016.513794 289.526672,1010.594727 287.214722,1004.551636 
	C285.867615,1001.030457 283.777679,999.934631 280.082184,999.983398 
	C265.270325,1000.178955 250.451035,1000.246521 235.642014,999.965332 
	C231.013168,999.877502 227.924026,1000.789124 227.001678,1005.732849 
	C226.861099,1006.486389 226.165344,1007.136353 225.431946,1007.995544 
z"/>
<path fill="#7E78DB" opacity="1.000000" stroke="none" 
	d="
M224.655426,963.048645 
	C223.329407,967.837097 222.090515,972.954712 220.021606,977.711365 
	C213.901352,991.782532 207.435059,1005.702881 201.161835,1019.708069 
	C200.536362,1021.104492 200.305649,1022.677795 199.886276,1024.188477 
	C206.080505,1024.188477 211.613419,1024.188477 216.059814,1024.188477 
	C219.194183,1018.281311 221.840393,1013.294067 224.828766,1008.191772 
	C223.159790,1013.321838 221.266769,1018.618103 219.038788,1023.769470 
	C218.587234,1024.813354 216.891281,1025.918579 215.733688,1025.957886 
	C209.457397,1026.171387 203.169998,1026.059326 195.683044,1026.059326 
	C205.483170,1004.584473 214.923187,983.898682 224.655426,963.048645 
z"/>
<path fill="#756FF8" opacity="1.000000" stroke="none" 
	d="
M146.831207,900.321350 
	C147.056030,900.257690 147.283386,900.204895 147.679688,900.150757 
	C150.896637,900.872009 153.362015,901.030029 153.988541,896.770752 
	C154.190231,895.399780 156.309006,894.310852 157.550781,893.092896 
	C158.525192,894.246460 160.002045,895.257874 160.376389,896.581177 
	C161.355682,900.042725 162.246048,903.237610 166.370712,904.301880 
	C167.162247,904.506226 167.595581,906.098572 168.445786,907.450806 
	C166.779221,908.131287 165.454681,908.672119 163.687515,909.519470 
	C162.872559,909.893494 162.500214,909.960938 161.681732,909.888184 
	C159.246994,910.603699 157.258408,911.459473 155.073074,912.399841 
	C152.417252,908.507751 149.624222,904.414551 146.831207,900.321350 
z"/>
<path fill="#7E78DB" opacity="1.000000" stroke="none" 
	d="
M841.530518,977.157227 
	C842.747375,976.795227 844.426086,976.074463 846.109314,976.063965 
	C860.572021,975.973572 875.036560,975.922058 889.498169,976.076660 
	C892.927734,976.113342 894.178467,975.127075 894.075012,971.578613 
	C893.738342,960.028442 895.396423,962.119995 884.689331,962.011108 
	C872.056030,961.882629 859.419800,962.039917 846.786499,961.914551 
	C844.960571,961.896484 843.143433,960.992981 841.198120,960.104614 
	C859.166626,959.710083 877.259277,959.710083 895.660950,959.710083 
	C895.660950,965.722900 895.660950,970.973022 895.660950,977.127808 
	C877.774780,977.127808 859.884705,977.127808 841.530518,977.157227 
z"/>
<path fill="#7E78DB" opacity="1.000000" stroke="none" 
	d="
M275.076477,929.546753 
	C272.455139,925.567627 269.774750,921.217896 267.150421,916.834534 
	C266.825073,916.291199 266.973114,915.434509 266.602844,914.952942 
	C264.555481,912.290771 248.772141,914.150024 247.364136,917.198242 
	C243.431946,925.710876 239.546783,934.245361 235.575653,942.739746 
	C235.185684,943.573914 234.330170,944.190430 233.344177,944.958374 
	C237.316864,934.976501 241.586151,924.921936 246.037811,914.948792 
	C246.451584,914.021912 247.949768,913.297607 249.073120,913.039673 
	C250.492432,912.713806 252.043854,912.964294 253.538300,912.964050 
	C270.033569,912.961670 270.033569,912.961548 275.076477,929.546753 
z"/>
<path fill="#7E78DB" opacity="1.000000" stroke="none" 
	d="
M841.556213,930.253174 
	C842.879456,929.555237 844.653748,928.137207 846.441650,928.119812 
	C864.896545,927.940796 883.353577,927.988037 902.256226,927.950806 
	C901.239258,928.656006 899.781677,930.002502 898.312317,930.015503 
	C879.547058,930.182617 860.780151,930.158691 841.556213,930.253174 
z"/>
<path fill="#7E78DB" opacity="1.000000" stroke="none" 
	d="
M1027.541016,913.136719 
	C1023.247192,913.495850 1018.487183,914.033081 1013.747253,913.892944 
	C1010.019592,913.782593 1008.924255,914.971741 1008.949585,918.696594 
	C1009.104553,941.435608 1009.027954,964.176331 1009.021606,986.916443 
	C1009.021545,987.228882 1008.979553,987.564453 1008.849670,987.838318 
	C1008.815125,987.911194 1008.381287,987.794739 1008.074097,987.487305 
	C1008.017395,962.668213 1008.017395,938.127014 1008.017395,913.022644 
	C1014.569824,913.022644 1020.826660,913.022644 1027.541016,913.136719 
z"/>
<path fill="#7E78DB" opacity="1.000000" stroke="none" 
	d="
M304.056274,993.535828 
	C302.851959,992.794128 301.078369,991.909119 300.445160,990.508484 
	C296.918884,982.708984 293.629425,974.800842 290.357300,966.889160 
	C289.687561,965.269775 289.437317,963.476868 289.012146,961.352600 
	C293.204102,969.515442 297.413361,978.072510 301.525360,986.676086 
	C302.519714,988.756714 303.192719,990.990845 304.056274,993.535828 
z"/>
<path fill="#7E78DB" opacity="1.000000" stroke="none" 
	d="
M289.040680,960.590332 
	C287.488403,958.633118 285.643127,956.425720 284.406342,953.918213 
	C281.272797,947.565002 278.357086,941.101501 275.494232,934.620300 
	C274.987793,933.473755 275.157990,932.028442 275.050232,930.304199 
	C278.522522,936.942810 282.024902,943.967773 285.367279,951.068115 
	C286.761871,954.030701 287.815857,957.153564 289.040680,960.590332 
z"/>
<path fill="#8ABDE2" opacity="1.000000" stroke="none" 
	d="
M14.569333,985.692383 
	C12.583902,986.834473 10.681547,988.051514 8.722820,988.150208 
	C8.087675,988.182251 6.556443,985.150146 6.806531,983.767639 
	C7.042281,982.464478 8.969134,980.726257 10.352313,980.519531 
	C13.651266,980.026550 14.335688,982.691345 14.569333,985.692383 
z"/>
<path fill="#8ABDE2" opacity="1.000000" stroke="none" 
	d="
M37.174576,909.505371 
	C35.710205,908.124390 33.622566,906.746155 33.685509,905.474304 
	C33.766914,903.829468 35.349400,902.016602 36.750488,900.820923 
	C37.194252,900.442322 39.755505,901.497681 40.227608,902.451294 
	C40.894871,903.799072 40.911266,905.781311 40.455986,907.261780 
	C40.156200,908.236389 38.536194,908.804993 37.174576,909.505371 
z"/>
<path fill="#8ABDE2" opacity="1.000000" stroke="none" 
	d="
M133.434235,1043.062622 
	C135.151443,1041.292969 137.285431,1040.101074 138.627777,1038.314453 
	C141.331924,1034.715210 143.604980,1030.792114 146.376434,1026.939697 
	C146.816483,1028.802002 146.935928,1030.727417 147.055374,1032.652710 
	C146.651978,1032.392578 146.248566,1032.132446 145.845154,1031.872314 
	C143.651840,1034.860718 141.435577,1037.832520 139.273300,1040.843140 
	C137.830872,1042.851318 137.063110,1046.276245 133.434235,1043.062622 
z"/>
<path fill="#8ABDE2" opacity="1.000000" stroke="none" 
	d="
M117.341423,1022.195801 
	C125.082237,1026.329956 128.624878,1033.922363 132.204926,1041.854980 
	C131.569809,1042.053101 130.434830,1042.239868 130.145584,1041.829956 
	C126.065025,1036.046265 122.092003,1030.186523 118.118584,1024.327759 
	C117.757423,1023.795288 117.572807,1023.143005 117.341423,1022.195801 
z"/>
<path fill="#7E78DB" opacity="1.000000" stroke="none" 
	d="
M232.705841,945.137512 
	C232.434662,951.375732 230.481949,957.155212 225.409943,961.856934 
	C227.538406,956.431702 229.971771,950.856506 232.705841,945.137512 
z"/>
<path fill="#7E78DB" opacity="1.000000" stroke="none" 
	d="
M841.178833,1008.467407 
	C840.825073,1008.415161 840.134155,1007.896301 840.137939,1007.382568 
	C840.210754,997.441650 840.364807,987.501282 840.845337,977.311523 
	C841.180664,987.375854 841.172852,997.689514 841.178833,1008.467407 
z"/>
<path fill="#8ABDE2" opacity="1.000000" stroke="none" 
	d="
M106.641830,1015.989136 
	C110.107086,1017.452393 113.433617,1019.254333 116.916748,1021.335205 
	C113.549927,1019.852112 110.026512,1018.089966 106.641830,1015.989136 
z"/>
<path fill="#8ABDE2" opacity="1.000000" stroke="none" 
	d="
M147.218567,1026.724243 
	C148.281677,1025.176147 149.705444,1023.670837 151.423889,1022.059082 
	C150.338806,1023.557495 148.959030,1025.162231 147.218567,1026.724243 
z"/>
<path fill="#8ABDE2" opacity="1.000000" stroke="none" 
	d="
M153.111450,1021.357910 
	C153.853394,1020.444153 154.933823,1019.660706 156.311707,1018.849609 
	C155.556076,1019.710754 154.502991,1020.599426 153.111450,1021.357910 
z"/>
<path fill="#8ABDE2" opacity="1.000000" stroke="none" 
	d="
M105.756012,1011.188721 
	C106.129227,1012.100037 106.186279,1013.053528 106.204010,1014.361084 
	C105.923073,1013.553711 105.681458,1012.392334 105.756012,1011.188721 
z"/>
<path fill="#8ABDE2" opacity="1.000000" stroke="none" 
	d="
M63.244076,1021.285522 
	C63.934685,1021.237915 64.656357,1021.466736 65.623131,1021.847046 
	C65.003868,1021.853027 64.139503,1021.707458 63.244076,1021.285522 
z"/>
<path fill="#7E78DB" opacity="1.000000" stroke="none" 
	d="
M345.044861,1016.260742 
	C345.324646,1016.065125 345.600739,1016.237732 345.926636,1016.735474 
	C345.729950,1016.812378 345.418213,1016.668518 345.044861,1016.260742 
z"/>
<path fill="#6452FB" opacity="1.000000" stroke="none" 
	d="
M78.983650,1002.729614 
	C74.434631,1004.544739 70.010979,1006.352173 65.449234,1007.688110 
	C62.415119,1008.576660 60.107304,1008.657837 58.203041,1004.457031 
	C55.903442,999.384033 51.492447,995.268188 48.127571,990.088379 
	C49.744602,988.300598 51.229343,987.162598 53.002377,985.803589 
	C49.427525,984.213257 47.419064,985.370911 45.985462,988.072266 
	C43.329258,985.282776 40.673061,982.493286 38.367828,979.395813 
	C40.996395,978.917664 43.531475,979.309326 45.478271,978.417236 
	C47.376293,977.547546 48.672768,975.365112 50.233349,973.759033 
	C52.321301,972.484924 53.882309,970.783264 55.439831,969.078430 
	C56.958557,967.416138 58.623764,965.861816 59.958542,964.062744 
	C62.527081,960.600830 64.337082,956.324158 67.518539,953.636414 
	C71.061165,950.643372 75.804230,949.086182 79.967667,946.799988 
	C80.756371,946.366882 81.218933,945.378723 81.933601,944.765076 
	C84.590714,942.483276 87.290268,940.250854 90.129669,938.298279 
	C93.276443,940.666382 96.267448,942.736267 99.258446,944.806152 
	C99.258438,944.806152 99.602921,944.877747 99.834839,945.272095 
	C101.005882,946.159363 101.945015,946.652344 102.884140,947.145386 
	C104.113861,947.933044 105.343590,948.720703 106.824913,950.083252 
	C107.802383,951.043396 108.528267,951.428711 109.254150,951.814026 
	C109.960625,952.138977 110.667099,952.463928 111.772720,953.139587 
	C112.458717,953.670715 112.745560,953.851135 113.032410,954.031555 
	C115.177902,955.206482 117.323380,956.381409 119.786293,958.086182 
	C121.021530,959.136292 121.939331,959.656555 122.857140,960.176758 
	C122.857140,960.176758 122.942444,960.530945 122.979790,961.035522 
	C123.055397,961.754883 123.093651,961.969666 123.131912,962.184387 
	C123.033440,963.097290 122.934975,964.010132 122.638016,965.477905 
	C122.113182,966.269897 121.786850,966.507141 121.138596,966.762268 
	C119.947006,966.895569 119.077339,967.010925 117.865593,967.107544 
	C116.994606,967.702637 116.465698,968.316467 115.705856,969.162842 
	C113.951416,970.242981 112.427910,971.090698 110.567688,971.945312 
	C109.432060,972.568176 108.633156,973.184204 107.568512,973.982422 
	C106.143097,975.071533 104.983414,975.978516 103.484589,976.901794 
	C102.415268,977.610229 101.685089,978.302246 100.814041,979.236694 
	C100.070122,980.170654 99.467072,980.862244 98.646759,981.671631 
	C98.429489,981.789490 97.953918,981.924500 97.604172,981.916626 
	C96.141586,982.934387 95.028740,983.960083 93.690941,985.192017 
	C93.322502,985.973999 93.179024,986.549683 92.774277,987.310974 
	C91.820786,988.310608 91.128563,989.124573 90.212845,989.894531 
	C89.683815,989.877563 89.383629,989.933472 88.834625,990.112305 
	C88.401321,990.509460 88.222183,990.812317 87.993431,991.370850 
	C87.928932,991.968994 87.914032,992.311462 87.694168,992.792786 
	C87.140976,993.269226 86.792755,993.606812 86.444527,993.944458 
	C84.528633,996.194641 82.612740,998.444885 80.177437,1000.866577 
	C79.499893,1001.393677 79.341759,1001.749329 79.183617,1002.104919 
	C79.183609,1002.104919 79.050308,1002.521362 78.983650,1002.729614 
z"/>
<path fill="#FFFFFF" opacity="1.000000" stroke="none" 
	d="
M33.026432,1015.374268 
	C28.692675,1016.120056 24.813423,1016.991211 20.889059,1017.539307 
	C18.986135,1017.804993 16.939264,1017.742859 15.061871,1017.341431 
	C11.184907,1016.512390 10.319190,1013.743469 13.190045,1010.902588 
	C21.190353,1002.985596 30.675484,997.383057 41.402397,994.046509 
	C42.695038,993.644470 45.113434,994.518066 46.009926,995.616638 
	C48.937004,999.203308 51.569386,1003.068970 53.914513,1007.062561 
	C54.441635,1007.960205 53.619781,1010.886169 52.950104,1011.058716 
	C46.511597,1012.717529 39.972595,1013.986328 33.026432,1015.374268 
z"/>
<path fill="#7E78DB" opacity="1.000000" stroke="none" 
	d="
M99.154610,944.482544 
	C96.267448,942.736267 93.276443,940.666382 89.993904,937.991028 
	C79.333206,929.300720 74.051918,917.141113 66.392525,906.433105 
	C65.048004,908.159241 64.334038,908.875549 63.854645,909.724365 
	C61.128849,914.550415 58.680656,919.552246 55.666626,924.187744 
	C54.370872,926.180481 51.940639,927.435608 50.025837,929.025818 
	C50.025837,929.025818 49.941174,928.943542 49.896530,928.901367 
	C51.672066,925.729614 53.504150,922.606750 55.309574,919.468628 
	C57.855011,915.044250 60.219810,910.505615 62.966682,906.210754 
	C65.095924,902.881653 69.284927,902.988281 70.866219,906.261414 
	C77.406471,919.799072 85.762749,931.964050 97.255470,941.823242 
	C97.984924,942.449097 98.458260,943.373474 99.154610,944.482544 
z"/>
<path fill="#7E78DB" opacity="1.000000" stroke="none" 
	d="
M102.821098,946.872437 
	C101.945015,946.652344 101.005882,946.159363 100.002502,945.325317 
	C100.365723,945.014038 100.793182,945.043823 101.534637,945.137085 
	C102.151772,945.666931 102.454910,946.133179 102.821098,946.872437 
z"/>
<path fill="#FAFAFC" opacity="1.000000" stroke="none" 
	d="
M478.936951,932.045410 
	C478.936951,932.045410 479.123840,931.586731 479.651123,931.337646 
	C488.439636,931.010254 496.700867,930.932007 504.962097,930.853699 
	C505.729126,930.906860 506.496155,930.960022 508.002869,931.115051 
	C516.677917,932.043640 523.630493,934.878540 528.927795,941.095581 
	C528.927795,941.095581 528.984192,941.025940 528.971985,941.420532 
	C534.141785,955.102417 532.176208,962.682373 520.894836,972.916992 
	C520.894836,972.916992 521.003540,972.958679 520.568420,972.946533 
	C508.419098,977.299316 496.197662,975.499146 484.154694,975.956604 
	C480.357971,976.100830 478.964417,974.924561 479.028687,970.865295 
	C479.233398,957.929077 479.000702,944.985901 478.936951,932.045410 
z"/>
<path fill="#7E78DB" opacity="1.000000" stroke="none" 
	d="
M478.638885,932.201416 
	C479.000702,944.985901 479.233398,957.929077 479.028687,970.865295 
	C478.964417,974.924561 480.357971,976.100830 484.154694,975.956604 
	C496.197662,975.499146 508.419098,977.299316 520.528687,972.903992 
	C517.318848,974.250610 513.788208,976.505798 510.092743,976.819580 
	C502.659607,977.450745 495.134766,976.922363 487.651123,977.058594 
	C478.017120,977.233887 478.073639,977.312256 477.998962,967.465393 
	C477.913361,956.171509 477.708984,944.878479 477.602264,933.584717 
	C477.598419,933.177979 478.083557,932.766602 478.638885,932.201416 
z"/>
<path fill="#7E78DB" opacity="1.000000" stroke="none" 
	d="
M521.285278,972.945801 
	C532.176208,962.682373 534.141785,955.102417 528.927185,941.420654 
	C533.959412,945.957092 534.878174,960.946533 530.137207,966.218689 
	C527.740906,968.883545 526.661621,973.470337 521.285278,972.945801 
z"/>
<path fill="#7E78DB" opacity="1.000000" stroke="none" 
	d="
M528.955872,940.720215 
	C523.630493,934.878540 516.677917,932.043640 508.385803,931.069092 
	C515.391052,928.534363 526.535828,933.546326 528.955872,940.720215 
z"/>
<path fill="#7E78DB" opacity="1.000000" stroke="none" 
	d="
M504.648529,930.590332 
	C496.700867,930.932007 488.439636,931.010254 479.732483,931.103760 
	C479.542603,930.626587 479.806763,929.700134 480.053467,929.704834 
	C488.148315,929.856995 496.241516,930.098572 504.648529,930.590332 
z"/>
<path fill="#FAFAFC" opacity="1.000000" stroke="none" 
	d="
M622.220032,936.959961 
	C629.025452,952.582397 635.620911,967.907715 642.438538,983.749390 
	C628.158386,983.749390 614.768066,983.749390 600.175171,983.749390 
	C602.201599,979.183655 604.017334,975.210144 605.737000,971.195374 
	C610.309692,960.520081 614.805359,949.811462 619.446350,939.166077 
	C619.888489,938.151917 621.136230,937.488892 622.220032,936.959961 
z"/>
<path fill="#FAFAFC" opacity="1.000000" stroke="none" 
	d="
M237.004700,984.007812 
	C238.295380,980.335571 239.411697,976.590515 240.909256,973.004700 
	C245.524582,961.953247 250.271057,950.956482 255.007248,939.955933 
	C255.641830,938.481995 256.510315,937.108826 257.509766,935.242065 
	C264.293549,950.883301 270.865875,965.977539 277.328003,981.118835 
	C277.638977,981.847473 276.978302,982.990723 275.956604,983.948120 
	C262.430298,983.972839 249.717484,983.990356 237.004700,984.007812 
z"/>
<path fill="#7E78DB" opacity="1.000000" stroke="none" 
	d="
M237.092224,984.404358 
	C249.717484,983.990356 262.430298,983.972839 275.614563,984.043091 
	C275.243073,984.743652 274.404602,985.882568 273.556427,985.889832 
	C261.935303,985.989441 250.312744,985.946899 238.691010,985.867737 
	C238.184875,985.864197 237.683411,985.172180 237.092224,984.404358 
z"/>
<path fill="#FFFFFF" opacity="1.000000" stroke="none" 
	d="
M121.460526,966.744385 
	C121.786850,966.507141 122.113182,966.269897 122.660385,965.821838 
	C123.047485,965.619263 123.345261,965.674500 123.361320,965.629333 
	C125.412842,959.872681 130.642212,960.867615 135.057098,960.049988 
	C138.733688,959.368958 142.341751,958.233582 146.039169,957.770203 
	C150.946808,957.155090 155.909821,956.832947 160.853638,956.774902 
	C161.908554,956.762512 163.570007,958.249268 163.899918,959.358398 
	C164.311386,960.741638 164.214020,963.190857 163.324249,963.887878 
	C159.512726,966.873901 155.436234,969.575989 151.211044,971.943970 
	C150.057892,972.590271 148.050095,971.711548 146.229874,971.510071 
	C146.251099,976.674194 141.707962,977.794250 138.384827,979.283142 
	C129.896408,983.086121 121.051460,986.085327 112.440300,989.627625 
	C110.192329,990.552429 108.371758,992.466003 106.191444,993.615417 
	C100.902229,996.403870 99.368629,995.919861 95.889511,990.522583 
	C94.562576,991.981995 91.645119,992.762451 95.282097,995.005737 
	C95.775246,995.309937 96.202118,996.763306 95.965843,997.004333 
	C95.364685,997.617432 94.127747,998.382507 93.575577,998.133301 
	C91.268051,997.091797 89.118904,995.699463 86.678116,994.190063 
	C86.792755,993.606812 87.140976,993.269226 88.049271,992.862427 
	C89.990471,992.335876 93.163956,993.025513 90.436356,989.938538 
	C91.128563,989.124573 91.820786,988.310608 92.963821,987.512207 
	C94.075035,986.696777 94.735435,985.865723 95.683167,984.829956 
	C96.631638,983.724976 97.292786,982.824707 97.953918,981.924500 
	C97.953918,981.924500 98.429489,981.789490 98.995239,981.770142 
	C100.666924,980.780518 101.772873,979.810303 103.253479,978.829102 
	C105.706932,977.150513 107.785721,975.482849 110.248322,973.807495 
	C114.524643,971.882385 119.229187,971.211304 121.460526,966.744385 
z"/>
<path fill="#FFFFFF" opacity="1.000000" stroke="none" 
	d="
M114.793869,1002.983398 
	C113.012794,998.559692 115.564705,998.125488 118.379097,997.952087 
	C118.757660,998.339539 119.136223,998.726990 119.514778,999.114441 
	C118.074310,1000.431030 116.633850,1001.747559 114.793869,1002.983398 
z"/>
<path fill="#7E78DB" opacity="1.000000" stroke="none" 
	d="
M122.789139,959.850830 
	C121.939331,959.656555 121.021530,959.136292 120.067390,958.270508 
	C120.927757,958.458191 121.824455,958.991516 122.789139,959.850830 
z"/>
<path fill="#7E78DB" opacity="1.000000" stroke="none" 
	d="
M109.135506,951.520630 
	C108.528267,951.428711 107.802383,951.043396 107.030716,950.316772 
	C107.662247,950.392639 108.339554,950.809875 109.135506,951.520630 
z"/>
<path fill="#7E78DB" opacity="1.000000" stroke="none" 
	d="
M79.388474,1001.979858 
	C79.341759,1001.749329 79.499893,1001.393677 79.914780,1001.067261 
	C80.045052,1001.399780 79.852318,1001.652588 79.388474,1001.979858 
z"/>
<path fill="#7E78DB" opacity="1.000000" stroke="none" 
	d="
M112.932327,953.780884 
	C112.745560,953.851135 112.458717,953.670715 112.034866,953.272095 
	C112.209328,953.212646 112.520790,953.371460 112.932327,953.780884 
z"/>
<path fill="#FFFFFF" opacity="1.000000" stroke="none" 
	d="
M85.332710,1000.318726 
	C85.587036,1000.281555 85.681953,1000.388184 85.776871,1000.494812 
	C85.575684,1000.484009 85.374489,1000.473206 85.332710,1000.318726 
z"/>
<path fill="#7E78DB" opacity="1.000000" stroke="none" 
	d="
M123.300751,962.043884 
	C123.093651,961.969666 123.055397,961.754883 123.025528,961.211792 
	C123.179138,961.223450 123.324364,961.563416 123.300751,962.043884 
z"/>
<path fill="#6452FB" opacity="1.000000" stroke="none" 
	d="
M146.502380,900.185730 
	C149.624222,904.414551 152.417252,908.507751 155.073074,912.399841 
	C157.258408,911.459473 159.246994,910.603699 161.500534,909.905151 
	C160.327866,912.112488 159.344528,915.000916 157.374451,916.068665 
	C148.581818,920.833923 140.902176,926.491272 136.915878,936.108643 
	C136.552063,936.986450 135.349609,937.516602 134.880127,937.915955 
	C130.460022,932.610107 126.562119,927.426941 122.111542,922.772217 
	C119.312775,919.844971 115.766876,917.592346 112.400436,915.262085 
	C110.252396,913.775085 108.547768,912.115540 111.798538,910.627441 
	C122.464966,905.744812 128.461411,896.725220 133.751572,886.953125 
	C133.943176,886.599243 134.557175,886.474060 135.363861,886.025818 
	C139.476898,890.309814 139.599014,897.802185 146.502380,900.185730 
z"/>
<path fill="#6E63FB" opacity="1.000000" stroke="none" 
	d="
M50.015343,929.404785 
	C51.940639,927.435608 54.370872,926.180481 55.666626,924.187744 
	C58.680656,919.552246 61.128849,914.550415 63.854645,909.724365 
	C64.334038,908.875549 65.048004,908.159241 66.392525,906.433105 
	C74.051918,917.141113 79.333206,929.300720 89.838135,937.692749 
	C87.290268,940.250854 84.590714,942.483276 81.933601,944.765076 
	C81.218933,945.378723 80.756371,946.366882 79.967667,946.799988 
	C75.804230,949.086182 71.061165,950.643372 67.518539,953.636414 
	C64.337082,956.324158 62.527081,960.600830 59.958542,964.062744 
	C58.623764,965.861816 56.958557,967.416138 55.439831,969.078430 
	C53.882309,970.783264 52.321301,972.484924 50.233349,973.759033 
	C48.672768,975.365112 47.376293,977.547546 45.478271,978.417236 
	C43.531475,979.309326 40.996395,978.917664 38.320610,979.044617 
	C32.540997,975.113770 27.204008,971.161987 21.745651,967.385620 
	C20.446659,966.486877 18.552143,966.435242 17.282997,965.511292 
	C16.249147,964.758484 15.203262,963.303955 15.161057,962.124817 
	C15.124404,961.100830 16.255255,959.635010 17.267483,959.036438 
	C25.880295,953.943054 34.385933,948.794861 40.831020,940.842712 
	C42.679630,938.561768 45.479584,937.069824 47.459606,934.870605 
	C48.682583,933.512207 49.181076,931.501587 50.015343,929.404785 
z"/>
<path fill="#6E63FB" opacity="1.000000" stroke="none" 
	d="
M46.104149,988.328857 
	C47.419064,985.370911 49.427525,984.213257 53.002377,985.803589 
	C51.229343,987.162598 49.744602,988.300598 48.083336,989.741577 
	C47.345486,989.558167 46.784157,989.071838 46.104149,988.328857 
z"/>
<path fill="#8ABDE2" opacity="1.000000" stroke="none" 
	d="
M65.450478,1010.553589 
	C65.411774,1010.492249 65.489182,1010.614868 65.450478,1010.553589 
z"/>
<path fill="#4F2DFA" opacity="1.000000" stroke="none" 
	d="
M157.674194,1013.533081 
	C148.034119,1019.430603 140.422455,1026.801392 135.134262,1037.755859 
	C132.974091,1034.841187 131.462616,1032.381592 129.542389,1030.298828 
	C125.569641,1025.989746 121.404449,1021.856018 117.253677,1017.715027 
	C116.572205,1017.035156 115.507805,1016.758118 114.710678,1016.171997 
	C109.815704,1012.573120 110.380600,1012.685242 115.097450,1009.014282 
	C121.476158,1004.049988 126.973206,997.950989 132.825607,992.315063 
	C133.500580,991.664978 134.029297,990.863037 135.085434,989.567810 
	C138.159088,993.686890 140.561264,997.877075 143.893463,1001.108032 
	C147.475098,1004.580688 151.980087,1007.087830 155.964569,1010.168457 
	C156.844910,1010.849182 157.231277,1012.168762 157.674194,1013.533081 
z"/>
<path fill="#8ABDE2" opacity="1.000000" stroke="none" 
	d="
M121.138603,966.762268 
	C119.229187,971.211304 114.524643,971.882385 110.229614,973.781128 
	C109.827087,973.762390 109.789146,973.709900 109.954041,973.503418 
	C110.380753,972.844055 110.642586,972.391174 110.904411,971.938354 
	C112.427910,971.090698 113.951416,970.242981 116.028564,969.144043 
	C117.124023,968.303894 117.665833,967.715088 118.207657,967.126282 
	C119.077339,967.010925 119.947006,966.895569 121.138603,966.762268 
z"/>
<path fill="#8ABDE2" opacity="1.000000" stroke="none" 
	d="
M109.845795,973.788818 
	C107.785721,975.482849 105.706932,977.150513 103.233109,978.801270 
	C102.838074,978.784424 102.796761,978.729187 102.954201,978.513794 
	C103.349007,977.827393 103.586365,977.356384 103.823730,976.885437 
	C104.983414,975.978516 106.143097,975.071533 107.897118,974.021729 
	C108.924019,973.822510 109.356583,973.766174 109.789139,973.709839 
	C109.789146,973.709900 109.827087,973.762390 109.845795,973.788818 
z"/>
<path fill="#8ABDE2" opacity="1.000000" stroke="none" 
	d="
M90.212860,989.894531 
	C93.163956,993.025513 89.990471,992.335876 88.254242,992.723633 
	C87.914032,992.311462 87.928932,991.968994 88.224655,991.248413 
	C88.699921,990.586365 88.894371,990.302246 89.088799,990.018127 
	C89.383629,989.933472 89.683815,989.877563 90.212860,989.894531 
z"/>
<path fill="#8ABDE2" opacity="1.000000" stroke="none" 
	d="
M95.395844,985.034729 
	C94.735435,985.865723 94.075035,986.696777 93.225090,987.326538 
	C93.179024,986.549683 93.322502,985.973999 93.941566,985.197754 
	C94.417152,984.997192 94.908142,984.973328 94.908142,984.973328 
	C94.908142,984.973328 95.395836,985.034729 95.395844,985.034729 
z"/>
<path fill="#8ABDE2" opacity="1.000000" stroke="none" 
	d="
M102.858444,978.812256 
	C101.772873,979.810303 100.666924,980.780518 99.212509,981.652283 
	C99.467072,980.862244 100.070122,980.170654 101.125458,979.220703 
	C101.984077,978.884583 102.390427,978.806885 102.796768,978.729248 
	C102.796761,978.729187 102.838074,978.784424 102.858444,978.812256 
z"/>
<path fill="#7E78DB" opacity="1.000000" stroke="none" 
	d="
M95.683167,984.829956 
	C95.395836,985.034729 94.908142,984.973328 94.908142,984.973328 
	C94.908142,984.973328 94.417152,984.997192 94.166527,984.991455 
	C95.028740,983.960083 96.141586,982.934387 97.604179,981.916626 
	C97.292786,982.824707 96.631638,983.724976 95.683167,984.829956 
z"/>
<path fill="#7E78DB" opacity="1.000000" stroke="none" 
	d="
M102.954208,978.513794 
	C102.390427,978.806885 101.984077,978.884583 101.266327,978.978271 
	C101.685089,978.302246 102.415268,977.610229 103.484589,976.901794 
	C103.586365,977.356384 103.349007,977.827393 102.954208,978.513794 
z"/>
<path fill="#7E78DB" opacity="1.000000" stroke="none" 
	d="
M109.954033,973.503357 
	C109.356583,973.766174 108.924019,973.822510 108.162857,973.839478 
	C108.633156,973.184204 109.432060,972.568176 110.567688,971.945312 
	C110.642586,972.391174 110.380753,972.844055 109.954033,973.503357 
z"/>
<path fill="#7E78DB" opacity="1.000000" stroke="none" 
	d="
M117.865585,967.107544 
	C117.665833,967.715088 117.124023,968.303894 116.259491,968.911499 
	C116.465698,968.316467 116.994606,967.702637 117.865585,967.107544 
z"/>
<path fill="#7E78DB" opacity="1.000000" stroke="none" 
	d="
M88.834641,990.112305 
	C88.894371,990.302246 88.699921,990.586365 88.274261,990.992798 
	C88.222183,990.812317 88.401321,990.509460 88.834641,990.112305 
z"/>
</svg>